<?xml version="1.0" encoding="UTF-8"?>
<!DOCTYPE svg PUBLIC "-//W3C//DTD SVG 1.1//EN" "http://www.w3.org/Graphics/SVG/1.1/DTD/svg11.dtd">
<svg xmlns="http://www.w3.org/2000/svg" version="1.1" width="171px" height="189px" style="shape-rendering:geometricPrecision; text-rendering:geometricPrecision; image-rendering:optimizeQuality; fill-rule:evenodd; clip-rule:evenodd" xmlns:xlink="http://www.w3.org/1999/xlink">
<g><path style="opacity:0.996" fill="#fcfcfc" d="M 50.5,-0.5 C 51.5,-0.5 52.5,-0.5 53.5,-0.5C 55.7296,0.775041 57.063,2.77504 57.5,5.5C 55.6667,9.83333 53.8333,14.1667 52,18.5C 51.2195,19.9437 51.3861,21.277 52.5,22.5C 55.9846,19.516 59.318,16.3493 62.5,13C 65.5466,9.8742 69.0466,9.04087 73,10.5C 73.7811,11.7287 74.2811,13.062 74.5,14.5C 73.1321,17.8903 71.7988,21.2236 70.5,24.5C 74.4367,24.7935 78.27,24.4601 82,23.5C 83.9124,24.6919 85.9124,25.6919 88,26.5C 88.7063,28.9712 88.373,31.3046 87,33.5C 83.2831,37.7616 79.4498,41.9282 75.5,46C 71.9837,47.2559 68.9837,49.2559 66.5,52C 71.3438,60.1995 78.3438,65.1995 87.5,67C 95.2094,67.2377 102.876,67.9043 110.5,69C 116.793,70.6566 123.127,72.1566 129.5,73.5C 136.449,70.3615 143.449,67.1949 150.5,64C 156.621,62.1662 159.954,64.3329 160.5,70.5C 159.636,73.9237 158.47,77.257 157,80.5C 153.107,84.7298 148.941,88.5632 144.5,92C 153.736,114.775 160.57,138.275 165,162.5C 166.28,166.159 167.78,169.659 169.5,173C 164.333,179.341 157.833,181.507 150,179.5C 144.82,181.88 139.32,183.213 133.5,183.5C 131.803,183.101 130.137,182.601 128.5,182C 125.433,178.703 123.267,174.869 122,170.5C 117.041,155.992 112.707,141.325 109,126.5C 103.34,125.3 97.6735,123.967 92,122.5C 90.7387,122.759 89.7387,123.426 89,124.5C 86.9496,143.416 83.6163,162.083 79,180.5C 78.1667,181.333 77.3333,182.167 76.5,183C 69.3115,182.829 62.3115,181.496 55.5,179C 54.0203,177.701 53.3536,176.034 53.5,174C 55.3288,159.133 53.8288,158.967 49,173.5C 45.2456,178.769 40.4122,179.936 34.5,177C 32.0934,174.715 29.5934,172.549 27,170.5C 29.3674,151.374 34.7007,133.041 43,115.5C 43.9983,110.857 44.3317,106.19 44,101.5C 42.076,97.9829 40.4094,94.3163 39,90.5C 38.2825,89.5494 37.4491,89.3828 36.5,90C 33.7047,91.7932 31.2047,93.9598 29,96.5C 29.7843,101.066 30.2843,105.733 30.5,110.5C 31.084,120.892 27.084,123.392 18.5,118C 5.18922,105.763 0.0225541,90.5959 3,72.5C 3.86405,59.4302 8.19738,47.7636 16,37.5C 26.4924,28.3495 35.4924,18.0162 43,6.5C 45.3959,3.93337 47.8959,1.60004 50.5,-0.5 Z"/></g>
<g><path style="opacity:1" fill="#000000" d="M 49.5,2.5 C 51.9484,2.01011 53.615,2.84344 54.5,5C 50.2079,12.3366 48.2079,20.17 48.5,28.5C 55.2592,22.7093 62.0925,17.0427 69,11.5C 70.7324,11.7336 71.5658,12.7336 71.5,14.5C 69.2311,18.6459 67.5644,22.9792 66.5,27.5C 72.5092,27.3338 78.5092,27.5005 84.5,28C 85.0219,28.5613 85.3552,29.228 85.5,30C 80.0301,40.1408 71.6967,46.4741 60.5,49C 65.3785,55.784 70.7118,62.1173 76.5,68C 93.7348,69.5391 110.735,72.3725 127.5,76.5C 131.618,76.242 135.285,74.742 138.5,72C 142.85,70.4907 147.183,68.8241 151.5,67C 153.473,66.5045 155.473,66.3379 157.5,66.5C 157.913,72.0916 156.413,77.0916 153,81.5C 149.098,84.8676 144.931,87.8676 140.5,90.5C 142.81,94.2543 144.643,98.2543 146,102.5C 152.507,125.727 159.007,148.894 165.5,172C 165.241,173.261 164.574,174.261 163.5,175C 157.028,178.79 151.362,177.956 146.5,172.5C 145.311,171.571 143.978,171.238 142.5,171.5C 142.383,173.484 143.05,175.15 144.5,176.5C 143.33,178.255 141.663,179.255 139.5,179.5C 136.645,179.278 133.645,179.111 130.5,179C 121.999,161.662 115.999,143.496 112.5,124.5C 104.09,121.231 95.4237,118.897 86.5,117.5C 85.8656,125.509 85.0323,133.509 84,141.5C 81.6253,154.479 78.792,167.313 75.5,180C 69.1009,179.752 62.7676,178.752 56.5,177C 55.8504,161.547 58.0171,146.38 63,131.5C 63.6667,129.167 63.6667,126.833 63,124.5C 59.2514,137.24 55.2514,149.906 51,162.5C 48.9844,166.531 46.9844,170.531 45,174.5C 39.1779,175.671 34.1779,174.004 30,169.5C 29.3333,167.167 29.3333,164.833 30,162.5C 32.6086,156.066 34.2753,149.399 35,142.5C 38.3398,133.157 41.6731,123.823 45,114.5C 46.1679,109.518 46.8345,104.518 47,99.5C 43.9148,94.328 40.5814,89.328 37,84.5C 33,87.8333 29,91.1667 25,94.5C 25.217,97.847 25.8837,101.18 27,104.5C 27.6667,108.833 27.6667,113.167 27,117.5C 25.1316,118.672 23.2983,118.505 21.5,117C 8.53116,105.772 3.36449,91.6056 6,74.5C 6.63153,63.9416 9.29819,53.9416 14,44.5C 19.9681,37.5308 26.3014,30.8641 33,24.5C 38.332,17.0068 43.832,9.67342 49.5,2.5 Z"/></g>
<g><path style="opacity:1" fill="#fdfdfd" d="M 41.5,21.5 C 42.3213,24.6414 42.8213,27.9748 43,31.5C 45.3167,34.0965 48.15,34.9299 51.5,34C 53.3695,32.4987 55.2028,30.9987 57,29.5C 57,31.5 57,33.5 57,35.5C 57.7247,36.0585 58.5581,36.3918 59.5,36.5C 64.9081,33.8964 70.5747,32.7298 76.5,33C 70.4765,41.352 62.4765,44.6854 52.5,43C 51.4238,44.7261 51.2571,46.5594 52,48.5C 58.6232,55.0722 64.2898,62.4055 69,70.5C 69.9025,71.7014 71.0692,72.5348 72.5,73C 90.5507,74.0436 108.217,77.2102 125.5,82.5C 128.806,81.8367 132.139,81.3367 135.5,81C 139.857,77.5715 144.69,75.0715 150,73.5C 150.065,76.1977 148.898,78.3644 146.5,80C 142.993,82.254 139.327,84.254 135.5,86C 134.426,86.7387 133.759,87.7387 133.5,89C 136.571,93.8725 139.071,99.0392 141,104.5C 146.588,123.257 151.755,142.091 156.5,161C 152.094,161.907 147.761,163.074 143.5,164.5C 142.667,163.5 141.833,162.5 141,161.5C 138.859,147.6 134.859,134.266 129,121.5C 126.778,118.697 124.945,118.863 123.5,122C 129.626,134.878 133.626,148.378 135.5,162.5C 133.194,162.993 130.861,163.326 128.5,163.5C 125.978,154.433 123.145,145.433 120,136.5C 119.234,130.023 117.901,123.69 116,117.5C 105.273,115.894 94.4394,113.894 83.5,111.5C 82.5581,111.608 81.7247,111.941 81,112.5C 80.6667,119.5 80.3333,126.5 80,133.5C 77.3625,144.718 75.3625,156.051 74,167.5C 73.586,167.957 73.086,168.291 72.5,168.5C 69.2379,167.248 65.9046,166.248 62.5,165.5C 62.1667,164.667 61.8333,163.833 61.5,163C 62.8402,152.981 65.0069,143.147 68,133.5C 68.6667,125.5 68.6667,117.5 68,109.5C 65.4781,106.674 63.4781,107.007 62,110.5C 56.175,127.475 50.5084,144.475 45,161.5C 44.6667,161.833 44.3333,162.167 44,162.5C 41.3892,161.929 38.8892,161.096 36.5,160C 38.2973,155.354 39.4639,150.52 40,145.5C 43.1811,135.773 46.5144,126.106 50,116.5C 51.8483,110.269 52.515,103.935 52,97.5C 48.1857,91.0706 44.1857,84.7373 40,78.5C 38.6124,77.4464 37.1124,77.2797 35.5,78C 30.6184,83.549 25.1184,88.3823 19,92.5C 20,98.1667 21,103.833 22,109.5C 14.7359,102.378 11.4026,93.7118 12,83.5C 18.4794,82.3307 24.6461,80.164 30.5,77C 33.8458,74.9875 36.5125,72.3208 38.5,69C 37.5915,66.6807 35.9248,66.0141 33.5,67C 27.6365,73.1763 20.4699,76.6763 12,77.5C 11.5034,75.1902 11.3367,72.8568 11.5,70.5C 14.9099,70.5429 18.2432,70.0429 21.5,69C 23.6126,68.1283 24.9459,66.6283 25.5,64.5C 25.5658,62.7336 24.7324,61.7336 23,61.5C 19.8493,63.7174 16.3493,65.0507 12.5,65.5C 13.9643,58.9408 16.131,52.6074 19,46.5C 26.6787,38.3216 34.1787,29.9883 41.5,21.5 Z"/></g>
<g><path style="opacity:1" fill="#000000" d="M 32.5,46.5 C 37.3276,46.3852 38.6609,48.5519 36.5,53C 31.5705,53.427 30.2372,51.2604 32.5,46.5 Z"/></g>
</svg>
