<?xml version="1.0" encoding="UTF-8"?>
<!DOCTYPE svg PUBLIC "-//W3C//DTD SVG 1.1//EN" "http://www.w3.org/Graphics/SVG/1.1/DTD/svg11.dtd">
<svg xmlns="http://www.w3.org/2000/svg" version="1.1" width="267px" height="119px" style="shape-rendering:geometricPrecision; text-rendering:geometricPrecision; image-rendering:optimizeQuality; fill-rule:evenodd; clip-rule:evenodd" xmlns:xlink="http://www.w3.org/1999/xlink">
<g><path style="opacity:1" fill="#fefffe" d="M 28.5,-0.5 C 97.8333,-0.5 167.167,-0.5 236.5,-0.5C 248.877,1.02066 258.877,6.68732 266.5,16.5C 266.5,39.5 266.5,62.5 266.5,85.5C 259.88,95.2258 250.547,100.726 238.5,102C 195.857,103.283 153.19,103.949 110.5,104C 99.3777,108.646 88.211,113.146 77,117.5C 67.1211,113.478 57.2878,109.312 47.5,105C 37.7619,104.151 28.0952,102.818 18.5,101C 10.2156,98.5456 3.88231,93.7123 -0.5,86.5C -0.5,63.5 -0.5,40.5 -0.5,17.5C 7.09125,8.20203 16.7579,2.20203 28.5,-0.5 Z"/></g>
<g><path style="opacity:1" fill="#000000" d="M 37.5,3.5 C 101.168,3.33334 164.834,3.5 228.5,4C 239.086,4.75069 248.753,8.08402 257.5,14C 259.041,15.5793 260.208,17.4127 261,19.5C 261.667,40.5 261.667,61.5 261,82.5C 259.558,86.2749 257.058,89.1083 253.5,91C 247.323,94.7258 240.656,97.0592 233.5,98C 190.853,99.2706 148.186,99.9372 105.5,100C 96.16,104.225 86.66,108.058 77,111.5C 67.1109,107.805 57.2776,103.972 47.5,100C 33.5092,99.6068 20.5092,95.9402 8.5,89C 6.38343,87.2691 4.88343,85.1024 4,82.5C 3.33333,61.5 3.33333,40.5 4,19.5C 7.29408,13.8876 12.1274,10.0543 18.5,8C 24.8568,5.99229 31.1901,4.49229 37.5,3.5 Z"/></g>
<g><path style="opacity:1" fill="#fefffe" d="M 37.5,8.5 C 101.168,8.33334 164.834,8.5 228.5,9C 237.953,9.81726 246.619,12.8173 254.5,18C 255.126,18.7504 255.626,19.5838 256,20.5C 256.667,40.8333 256.667,61.1667 256,81.5C 254.833,84 253,85.8333 250.5,87C 245.189,89.9926 239.522,91.9926 233.5,93C 190.521,94.2772 147.521,94.9439 104.5,95C 95.2351,98.6425 86.0685,102.476 77,106.5C 67.5716,102.537 58.0716,98.7041 48.5,95C 38.9886,94.2771 29.6553,92.6105 20.5,90C 15.7735,88.2598 11.9402,85.4265 9,81.5C 8.33333,61.1667 8.33333,40.8333 9,20.5C 11.6306,16.9212 15.1306,14.4212 19.5,13C 25.5202,11.0356 31.5202,9.53563 37.5,8.5 Z"/></g>
</svg>
